#!OML:ASF X:\für Bonn\!DataBase\2005_08_10_Bjorn_Final\c3d\bjorn.ASF
:FULLY-SPECIFIED
:DEGREES
47
root 5.12708 21.9855 0.149935 9.37539 -9.43513 -0.134477
lowerback -10.6305 1.65501 0.801918
upperback 2.87468 2.16381 -0.711689
thorax 9.10528 1.11392 -0.813381
lowerneck 0.989578 -2.03928 -0.0283343
upperneck 8.21642 -2.74411 0.201379
head 2.41612 -1.36161 0.0188702
rclavicle -1.43622e-014 5.66536e-015
rhumerus -12.9025 -8.99093 -49.6505
rradius 135.07
rwrist -205.165
rhand -1.64435e-012 1.2261e-012
rfingers 7.12502
rthumb 25.5904 -28.3008
lclavicle -1.43622e-014 5.66536e-015
lhumerus -35.7364 -12.2915 54.7872
lradius 134.003
lwrist -26.3742
lhand 1.27222e-012 5.1843e-013
lfingers 7.12502
lthumb 25.5904 28.3008
rfemur -6.59598 -5.68423 10.9245
rtibia 44.9385
rfoot 22.2185 0.307431
rtoes -5.01696
lfemur -4.30335 7.40571 -15.4442
ltibia 40.0679
lfoot 27.5792 -6.44296
ltoes -9.32157
48
root 5.12921 22.1699 0.315991 9.10916 -9.35805 -0.145242
lowerback -10.2482 1.64472 0.838534
upperback 2.85136 2.14749 -0.719705
thorax 8.85825 1.10853 -0.856266
lowerneck 1.62765 -2.03927 -0.241384
upperneck 8.51362 -2.75502 0.371224
head 2.40633 -1.36963 0.113701
rclavicle -2.5022e-014 3.67752e-015
rhumerus -10.9568 -6.85982 -50.677
rradius 134.133
rwrist -204.63
rhand -2.35361e-013 -2.8784e-013
rfingers 7.12502
rthumb 25.5904 -28.3008
lclavicle -2.5022e-014 3.67752e-015
lhumerus -32.795 -12.8555 54.4567
lradius 132.921
lwrist -25.5895
lhand -6.55194e-013 1.0138e-014
lfingers 7.12502
lthumb 25.5904 28.3008
rfemur -7.1125 -6.37074 11.1961
rtibia 46.1163
rfoot 22.3433 1.6165
rtoes -5.63586
lfemur -4.7277 7.49766 -15.3569
ltibia 41.2832
lfoot 27.857 -6.92919
ltoes -7.74151
49
root 5.13127 22.3417 0.472702 8.87541 -9.24007 -0.133322
lowerback -9.79094 1.63546 0.866173
upperback 2.84193 2.13768 -0.766544
thorax 8.58453 1.10696 -0.935787
lowerneck 2.03269 -2.06114 -0.309012
upperneck 8.98755 -2.7921 0.440475
head 2.4938 -1.38841 0.148057
rclavicle -3.49861e-014 1.96797e-014
rhumerus -9.07819 -4.99095 -51.9257
rradius 133.212
rwrist -204.006
rhand -3.78486e-013 -2.39496e-012
rfingers 7.12502
rthumb 25.5904 -28.3008
lclavicle -3.49861e-014 1.96797e-014
lhumerus -29.7739 -13.2929 54.0702
lradius 131.593
lwrist -25.3872
lhand -1.67615e-012 -1.51355e-012
lfingers 7.12502
lthumb 25.5904 28.3008
rfemur -7.7719 -7.0347 11.4638
rtibia 47.3605
rfoot 22.4686 2.87016
rtoes -4.54297
lfemur -5.29774 7.60237 -15.2935
ltibia 42.5619
lfoot 27.9597 -7.44769
ltoes -7.43832
50
root 5.13371 22.503 0.623533 8.65114 -9.11103 -0.118586
lowerback -9.20569 1.62025 0.871198
upperback 2.81991 2.12284 -0.806808
thorax 8.22199 1.10127 -0.999755
lowerneck 2.35645 -2.07153 -0.363778
upperneck 9.50871 -2.81396 0.49667
head 2.61192 -1.39943 0.175286
rclavicle 2.9768e-014 5.06901e-015
rhumerus -7.32991 -3.04016 -53.171
rradius 132.108
rwrist -202.786
rhand -6.2975e-013 1.04163e-012
rfingers 7.12502
rthumb 25.5904 -28.3008
lclavicle 2.9768e-014 5.06901e-015
lhumerus -26.8614 -13.7648 53.7853
lradius 130.128
lwrist -25.3191
lhand 1.19907e-012 1.74533e-013
lfingers 7.12502
lthumb 25.5904 28.3008
rfemur -8.51209 -7.72908 11.7391
rtibia 48.6036
rfoot 22.5821 4.0561
rtoes -3.0012
lfemur -5.97009 7.81126 -15.2061
ltibia 43.8632
lfoot 28.1298 -7.94265
ltoes -7.16439
51
root 5.13608 22.6524 0.76929 8.45278 -8.97435 -0.0370488
lowerback -8.52318 1.60893 0.818958
upperback 2.79736 2.1229 -0.885376
thorax 7.80313 1.10084 -1.07184
lowerneck 2.56714 -2.08504 -0.428378
upperneck 9.9959 -2.84628 0.630189
head 2.74163 -1.41365 0.227718
rclavicle 2.55438e-014 -4.27387e-015
rhumerus -5.75041 -1.31295 -54.4535
rradius 130.862
rwrist -201.419
rhand -8.96916e-013 2.21049e-013
rfingers 7.12502
rthumb 25.5904 -28.3008
lclavicle 2.55438e-014 -4.27387e-015
lhumerus -24.0693 -14.2565 53.6372
lradius 128.655
lwrist -24.8326
lhand 7.63333e-013 -8.50798e-013
lfingers 7.12502
lthumb 25.5904 28.3008
rfemur -9.37751 -8.52229 11.9655
rtibia 49.8081
rfoot 22.645 5.10872
rtoes -2.94196
lfemur -6.76839 8.09905 -15.2025
ltibia 45.1513
lfoot 28.434 -8.69922
ltoes -6.72729
52
root 5.1391 22.7912 0.910925 8.28081 -8.79776 0.048979
lowerback -7.74539 1.59403 0.775961
upperback 2.8089 2.1181 -0.991927
thorax 7.36812 1.0993 -1.18093
lowerneck 2.52505 -2.08764 -0.437903
upperneck 10.5232 -2.86985 0.819339
head 2.9321 -1.41883 0.286063
rclavicle 5.46658e-016 -1.8487e-014
rhumerus -4.44506 0.298771 -55.7819
rradius 129.338
rwrist -200.586
rhand -5.05708e-013 1.27858e-012
rfingers 7.12502
rthumb 25.5904 -28.3008
lclavicle 5.46658e-016 -1.8487e-014
lhumerus -21.2827 -14.6874 53.6073
lradius 127.005
lwrist -24.9013
lhand 1.20861e-012 5.9039e-013
lfingers 7.12502
lthumb 25.5904 28.3008
rfemur -10.3439 -9.40106 12.2323
rtibia 50.9251
rfoot 22.8227 6.16655
rtoes -3.6155
lfemur -7.69616 8.44767 -15.214
ltibia 46.4251
lfoot 28.6923 -9.72178
ltoes -7.79729
53
root 5.14065 22.9161 1.04971 8.06895 -8.62564 0.153939
lowerback -6.84024 1.57895 0.659486
upperback 2.85883 2.11753 -1.07837
thorax 6.89797 1.09599 -1.22946
lowerneck 2.48272 -2.09808 -0.454181
upperneck 10.9041 -2.90449 1.01649
head 3.07459 -1.42918 0.349226
rclavicle 2.21396e-014 -1.98785e-016
rhumerus -3.39558 1.7919 -57.0508
rradius 127.698
rwrist -199.681
rhand 2.76708e-013 1.27222e-014
rfingers 7.12502
rthumb 25.5904 -28.3008
lclavicle 2.21396e-014 -1.98785e-016
lhumerus -18.4048 -14.9116 53.7504
lradius 125.268
lwrist -25.0294
lhand -1.52667e-013 -1.35571e-013
lfingers 7.12502
lthumb 25.5904 28.3008
rfemur -11.3061 -10.273 12.5027
rtibia 51.9347
rfoot 22.927 7.05619
rtoes -4.54993
lfemur -8.63275 8.85613 -15.2542
ltibia 47.6558
lfoot 28.9795 -10.8651
ltoes -9.34382
54
root 5.14252 23.0274 1.18849 7.76241 -8.42671 0.206491
lowerback -5.79643 1.56651 0.599361
upperback 3.00165 2.11229 -1.15203
thorax 6.44899 1.09316 -1.29904
lowerneck 2.41808 -2.10989 -0.426417
upperneck 11.0866 -2.93963 1.21402
head 3.15303 -1.43809 0.406012
rclavicle -1.08835e-014 1.8487e-014
rhumerus -2.47563 3.16902 -58.3128
rradius 126.026
rwrist -198.62
rhand -1.24996e-012 -1.17681e-013
rfingers 7.12502
rthumb 25.5904 -28.3008
lclavicle -1.08835e-014 1.8487e-014
lhumerus -15.4522 -15.0253 54.05
lradius 123.415
lwrist -25.0771
lhand 6.42472e-013 -4.36929e-013
lfingers 7.12502
lthumb 25.5904 28.3008
rfemur -12.1096 -11.0674 12.8254
rtibia 52.8027
rfoot 22.6066 7.84546
rtoes -5.77659
lfemur -9.49116 9.23232 -15.2355
ltibia 48.8119
lfoot 29.1524 -11.8904
ltoes -8.51494
